name GIL12_static.mot
datacolumns 141
datarows 4
range 0.48333332 0.50833333
endheader

                time	           pelvis_tx	           pelvis_ty	           pelvis_tz	         pelvis_tilt	         pelvis_list	     pelvis_rotation	       hip_flexion_r	     hip_adduction_r	      hip_rotation_r	        knee_angle_r	       ankle_angle_r	    subtalar_angle_r	         mtp_angle_r	       hip_flexion_l	     hip_adduction_l	      hip_rotation_l	        knee_angle_l	       ankle_angle_l	    subtalar_angle_l	         mtp_angle_l	    lumbar_extension	      lumbar_bending	     lumbar_rotation	    ground_marker_px	    ground_marker_py	    ground_marker_pz	    ground_marker_px	    ground_marker_py	    ground_marker_pz	    ground_marker_px	    ground_marker_py	    ground_marker_pz	    ground_marker_px	    ground_marker_py	    ground_marker_pz	    ground_marker_px	    ground_marker_py	    ground_marker_pz	    ground_marker_px	    ground_marker_py	    ground_marker_pz	    ground_marker_px	    ground_marker_py	    ground_marker_pz	    ground_marker_px	    ground_marker_py	    ground_marker_pz	    ground_marker_px	    ground_marker_py	    ground_marker_pz	    ground_marker_px	    ground_marker_py	    ground_marker_pz	    ground_marker_px	    ground_marker_py	    ground_marker_pz	    ground_marker_px	    ground_marker_py	    ground_marker_pz	    ground_marker_px	    ground_marker_py	    ground_marker_pz	    ground_marker_px	    ground_marker_py	    ground_marker_pz	    ground_marker_px	    ground_marker_py	    ground_marker_pz	    ground_marker_px	    ground_marker_py	    ground_marker_pz	    ground_marker_px	    ground_marker_py	    ground_marker_pz	    ground_marker_px	    ground_marker_py	    ground_marker_pz	    ground_marker_px	    ground_marker_py	    ground_marker_pz	    ground_marker_px	    ground_marker_py	    ground_marker_pz	    ground_marker_px	    ground_marker_py	    ground_marker_pz	    ground_marker_px	    ground_marker_py	    ground_marker_pz	    ground_marker_px	    ground_marker_py	    ground_marker_pz	    ground_marker_px	    ground_marker_py	    ground_marker_pz	    ground_marker_px	    ground_marker_py	    ground_marker_pz	    ground_marker_px	    ground_marker_py	    ground_marker_pz	    ground_marker_px	    ground_marker_py	    ground_marker_pz	    ground_marker_px	    ground_marker_py	    ground_marker_pz	    ground_marker_px	    ground_marker_py	    ground_marker_pz	    ground_marker_px	    ground_marker_py	    ground_marker_pz	    ground_marker_px	    ground_marker_py	    ground_marker_pz	    ground_marker_px	    ground_marker_py	    ground_marker_pz	    ground_marker_px	    ground_marker_py	    ground_marker_pz	    ground_marker_px	    ground_marker_py	    ground_marker_pz	    ground_marker_px	    ground_marker_py	    ground_marker_pz	    ground_marker_px	    ground_marker_py	    ground_marker_pz	    ground_marker_px	    ground_marker_py	    ground_marker_pz	    ground_marker_px	    ground_marker_py	    ground_marker_pz	    ground_marker_px	    ground_marker_py	    ground_marker_pz	
          0.48333332	          1.48073113	          0.68384439	         -0.34726730	        -17.41667747	          0.21849556	          2.56270051	         14.74868202	         -5.50115108	         -2.01883125	         -1.71614981	          3.09996724	          0.00000000	          0.00000000	         17.73913574	         -0.45709050	         -7.91471672	         -2.53388619	          1.58658254	          0.00000000	          0.00000000	         25.17616081	         -2.96282554	         -3.23808789	          1.40333200	          0.63551915	         -0.34208846	          1.41859162	          0.64159977	         -0.28724834	          1.41423726	          0.64456874	         -0.40457499	          1.40559959	          0.34143281	         -0.26545438	          1.41573393	          0.34206289	         -0.41470250	          1.38453341	          0.05449522	         -0.24399520	          1.40305424	          0.05564648	         -0.43113363	          1.48073113	          0.68384439	         -0.34726730	          1.48397470	          0.68163288	         -0.25987250	          1.47748756	          0.68605590	         -0.43466210	          1.36091959	          0.75241125	         -0.30032790	          1.35788572	          0.75206220	         -0.38538778	          1.40588522	          0.34475157	         -0.21957514	          1.40736425	          0.34360301	         -0.46194211	          1.40311563	          0.33813819	         -0.31327158	          1.42088234	          0.33781880	         -0.37119287	          1.37892675	          0.05736751	         -0.21109286	          1.38933492	          0.05793891	         -0.46050671	          1.39271283	          0.05359692	         -0.27058542	          1.41231513	          0.05273337	         -0.39947426	          1.34621882	          0.03835387	         -0.25888339	          1.35196018	          0.03805179	         -0.42089349	          1.44297278	          1.02039146	         -0.33510733	          1.53443241	          0.91167492	         -0.33593374	          1.36456203	          1.03771436	         -0.34416789	          1.46060371	          1.01467872	         -0.29759651	          1.46294570	          1.01308882	         -0.38687569	          1.47567344	          0.04128178	         -0.22831810	          1.48856425	          0.03898033	         -0.45867562	          1.52627170	          0.42949274	         -0.30075991	          1.46318746	          0.42291871	         -0.51787120	          1.45434010	          0.48388001	         -0.25002080	          1.46019399	          0.48255640	         -0.43543038	          1.44618809	          0.39784127	         -0.24606425	          1.46549189	          0.39944905	         -0.42129266	          1.40799332	          0.14658396	         -0.14860462	          1.50302672	          0.16173871	         -0.41488796	          1.39913476	          0.20098424	         -0.21421115	          1.43870938	          0.21871486	         -0.42565435	
          0.49166667	          1.48108935	          0.68381143	         -0.34726053	        -17.43098831	          0.21413177	          2.57618380	         14.71929741	         -5.49546099	         -2.04429150	         -1.69583666	          3.12152672	          0.00000000	          0.00000000	         17.72091675	         -0.45410371	         -7.91446352	         -2.52695346	          1.61173117	          0.00000000	          0.00000000	         25.16108513	         -2.93879938	         -3.27669835	          1.40365267	          0.63552034	         -0.34206337	          1.41895413	          0.64157927	         -0.28722861	          1.41457188	          0.64455509	         -0.40455407	          1.40573740	          0.34141165	         -0.26546961	          1.41589522	          0.34203282	         -0.41467804	          1.38455880	          0.05447835	         -0.24401030	          1.40307975	          0.05562889	         -0.43113333	          1.48108935	          0.68381143	         -0.34726053	          1.48435318	          0.68159509	         -0.25987971	          1.47782564	          0.68602771	         -0.43464139	          1.36124074	          0.75243473	         -0.30032894	          1.35823739	          0.75207806	         -0.38536623	          1.40601671	          0.34472513	         -0.21958996	          1.40751493	          0.34357697	         -0.46191558	          1.40362239	          0.33763370	         -0.31325680	          1.42106712	          0.33768770	         -0.37118667	          1.37894809	          0.05735313	         -0.21110883	          1.38935447	          0.05793047	         -0.46050292	          1.39275038	          0.05356129	         -0.27059448	          1.41236079	          0.05271164	         -0.39948267	          1.34622610	          0.03837220	         -0.25889432	          1.35196793	          0.03806010	         -0.42089298	          1.44313383	          1.02027524	         -0.33511573	          1.53453803	          0.91151226	         -0.33596933	          1.36472607	          1.03764534	         -0.34419748	          1.46074903	          1.01453233	         -0.29762313	          1.46312094	          1.01299119	         -0.38685963	          1.47569513	          0.04126354	         -0.22832063	          1.48857856	          0.03895416	         -0.45868218	          1.52648318	          0.42934981	         -0.30076179	          1.46340787	          0.42285538	         -0.51783693	          1.45417964	          0.48365077	         -0.25021866	          1.46043289	          0.48244366	         -0.43535641	          1.44635105	          0.39768869	         -0.24609922	          1.46570110	          0.39932233	         -0.42125574	          1.40803611	          0.14655828	         -0.14861077	          1.50311172	          0.16163306	         -0.41484967	          1.39929044	          0.20092583	         -0.21423358	          1.43882036	          0.21856922	         -0.42565155	
          0.50000000	          1.48143566	          0.68378609	         -0.34724891	        -17.44375229	          0.21188518	          2.58334255	         14.69312668	         -5.49072647	         -2.05960464	         -1.68056953	          3.14362597	          0.00000000	          0.00000000	         17.70247269	         -0.45067605	         -7.92240572	         -2.52192354	          1.63766158	          0.00000000	          0.00000000	         25.09778023	         -2.91120625	         -3.31412935	          1.40396523	          0.63552535	         -0.34203771	          1.41929853	          0.64156616	         -0.28721017	          1.41490209	          0.64454615	         -0.40453497	          1.40588009	          0.34140438	         -0.26547712	          1.41606021	          0.34201279	         -0.41464597	          1.38458467	          0.05446805	         -0.24401513	          1.40310407	          0.05561887	         -0.43112898	          1.48143566	          0.68378609	         -0.34724891	          1.48470974	          0.68156695	         -0.25987887	          1.47816157	          0.68600523	         -0.43461895	          1.36155367	          0.75246572	         -0.30032560	          1.35856700	          0.75209618	         -0.38534036	          1.40615571	          0.34471399	         -0.21959713	          1.40766776	          0.34355929	         -0.46188128	          1.40312743	          0.33820257	         -0.31332165	          1.42133474	          0.33751518	         -0.37124038	          1.37897182	          0.05734551	         -0.21111427	          1.38937223	          0.05793018	         -0.46049464	          1.39279211	          0.05354151	         -0.27056807	          1.41244519	          0.05268263	         -0.39949784	          1.34623349	          0.03839708	         -0.25890270	          1.35197747	          0.03807501	         -0.42089012	          1.44328189	          1.02013874	         -0.33510515	          1.53454196	          0.91125506	         -0.33598059	          1.36446333	          1.03772533	         -0.34431010	          1.46087432	          1.01435125	         -0.29763588	          1.46328044	          1.01285732	         -0.38681707	          1.47571707	          0.04125114	         -0.22831698	          1.48859477	          0.03894083	         -0.45868310	          1.52668440	          0.42922220	         -0.30075067	          1.46365511	          0.42280242	         -0.51780301	          1.45518017	          0.48382029	         -0.25006923	          1.46067631	          0.48233184	         -0.43524927	          1.44652581	          0.39749140	         -0.24610844	          1.46595502	          0.39922783	         -0.42124698	          1.40808189	          0.14653867	         -0.14860801	          1.50319695	          0.16153987	         -0.41480801	          1.39946949	          0.20089108	         -0.21425314	          1.43892419	          0.21841174	         -0.42560616	
          0.50833333	          1.48176575	          0.68377185	         -0.34722838	        -17.45248795	          0.21272266	          2.58007860	         14.66764641	         -5.48584652	         -2.06000948	         -1.66964900	          3.16599870	          0.00000000	          0.00000000	         17.67959976	         -0.44892275	         -7.94036531	         -2.51727247	          1.66423213	          0.00000000	          0.00000000	         25.04271317	         -2.91441298	         -3.31938004	          1.40426970	          0.63553280	         -0.34201354	          1.41961873	          0.64156240	         -0.28719249	          1.41522932	          0.64454126	         -0.40451762	          1.40601945	          0.34141287	         -0.26547641	          1.41622150	          0.34200341	         -0.41461027	          1.38460410	          0.05446672	         -0.24401136	          1.40312123	          0.05561732	         -0.43112198	          1.48176575	          0.68377185	         -0.34722838	          1.48503435	          0.68155372	         -0.25986320	          1.47849715	          0.68599004	         -0.43459356	          1.36186123	          0.75249678	         -0.30031890	          1.35887027	          0.75211334	         -0.38531673	          1.40629435	          0.34471989	         -0.21959627	          1.40781724	          0.34355158	         -0.46184343	          1.40268576	          0.33875290	         -0.31341130	          1.42160034	          0.33741018	         -0.37130818	          1.37899137	          0.05734676	         -0.21111071	          1.38938296	          0.05793863	         -0.46048382	          1.39282167	          0.05354435	         -0.27056304	          1.41250753	          0.05265663	         -0.39950696	          1.34624553	          0.03842035	         -0.25890660	          1.35198557	          0.03809397	         -0.42088452	          1.44342947	          1.02001774	         -0.33511227	          1.53456891	          0.91103280	         -0.33596557	          1.36378706	          1.03789890	         -0.34452108	          1.46101189	          1.01421344	         -0.29768535	          1.46342552	          1.01271009	         -0.38677573	          1.47573233	          0.04124636	         -0.22830623	          1.48860776	          0.03894344	         -0.45868146	          1.52686453	          0.42911729	         -0.30071881	          1.46390736	          0.42276239	         -0.51777154	          1.45604885	          0.48397952	         -0.24989389	          1.46093404	          0.48226446	         -0.43517864	          1.44665694	          0.39732280	         -0.24611631	          1.46621251	          0.39919564	         -0.42126486	          1.40812254	          0.14652917	         -0.14859709	          1.50327384	          0.16146809	         -0.41476998	          1.39962029	          0.20087704	         -0.21426429	          1.43901408	          0.21831995	         -0.42557389	
